<?xml version="1.0" encoding="UTF-8" standalone="no"?>
<svg width="512" height="512" viewBox="0 0 512 512" fill="none" xmlns="http://www.w3.org/2000/svg">
  <!-- Background Circle -->
  <circle cx="256" cy="256" r="256" fill="#5E72E4"/>
  
  <!-- Heart Shape -->
  <path d="M256 360C256 360 150 280 150 200C150 160 180 130 220 130C240 130 256 140 256 140C256 140 272 130 292 130C332 130 362 160 362 200C362 280 256 360 256 360Z" fill="#FB6340" stroke="#FFFFFF" stroke-width="16"/>
  
  <!-- Brain Shape -->
  <path d="M206 250C206 250 186 240 186 220C186 200 206 190 226 190C246 190 266 210 266 230" stroke="#11CDEF" stroke-width="16" stroke-linecap="round"/>
  <path d="M306 250C306 250 326 240 326 220C326 200 306 190 286 190C266 190 246 210 246 230" stroke="#11CDEF" stroke-width="16" stroke-linecap="round"/>
  
  <!-- Text Path -->
  <path id="textPath" d="M256 320C256 320 350 270 350 190" fill="none"/>
  
  <!-- Stars -->
  <circle cx="186" cy="190" r="8" fill="#FFFFFF"/>
  <circle cx="326" cy="190" r="8" fill="#FFFFFF"/>
  <circle cx="256" cy="230" r="8" fill="#FFFFFF"/>
</svg> 